<?xml version="1.0" standalone="no"?>
<!DOCTYPE svg PUBLIC "-//W3C//DTD SVG 20010904//EN"
 "http://www.w3.org/TR/2001/REC-SVG-20010904/DTD/svg10.dtd">
<svg version="1.0" xmlns="http://www.w3.org/2000/svg"
 width="900.000000pt" height="578.000000pt" viewBox="0 0 900.000000 578.000000"
 preserveAspectRatio="xMidYMid meet">

<g transform="translate(0.000000,578.000000) scale(0.100000,-0.100000)"
fill="#000000" stroke="none">
<path d="M4670 5350 l-195 -5 80 -39 c176 -85 570 -267 592 -272 22 -6 23 -4
23 67 0 41 -3 91 -7 113 -6 38 -8 39 -121 92 -75 35 -125 53 -146 52 -17 -1
-119 -5 -226 -8z"/>
<path d="M3618 5333 c-126 -2 -228 -7 -228 -11 0 -4 150 -76 333 -159 l334
-153 251 0 c139 0 252 4 252 8 0 5 -87 48 -192 97 -106 48 -258 119 -337 157
-79 37 -153 67 -165 66 -12 -2 -123 -4 -248 -5z"/>
<path d="M2414 5296 c-16 -12 -16 -24 -1 -195 l16 -183 -74 -148 c-40 -81
-171 -351 -291 -601 -119 -250 -248 -519 -286 -599 l-70 -145 9 -99 8 -100
1155 -257 c635 -141 1268 -282 1406 -313 137 -31 255 -56 262 -56 6 0 18 13
26 29 9 16 37 49 63 74 26 25 45 49 41 52 -4 4 -18 -4 -32 -18 -14 -15 -26
-25 -26 -24 0 21 304 904 376 1090 7 20 14 46 14 56 0 11 4 21 8 23 5 2 27 57
49 123 23 66 55 158 72 205 27 75 31 97 31 191 l0 106 -49 7 c-55 7 -21 18
-591 -194 -151 -57 -277 -105 -280 -107 -2 -2 2 -8 10 -13 17 -11 -54 -5 -130
10 -25 5 -74 14 -110 20 -90 15 -320 57 -405 75 -38 8 -160 30 -270 49 -624
109 -792 140 -801 149 -2 2 46 23 108 47 62 23 154 59 203 78 80 32 99 36 168
34 91 -3 119 8 115 45 -3 23 4 28 75 55 42 16 77 33 77 38 0 4 -26 11 -57 15
-79 9 -106 16 -96 25 4 4 72 35 151 70 78 34 142 64 142 67 0 2 -72 3 -160 1
-88 -2 -160 0 -160 5 0 4 65 7 145 7 80 0 145 3 145 8 0 4 -151 76 -334 160
l-334 153 -151 -2 c-102 0 -155 -5 -167 -13z m204 -225 c9 -5 25 -12 35 -15
11 -4 17 -13 15 -23 -2 -14 -14 -19 -48 -20 -25 -1 -39 0 -32 3 19 9 14 24 -8
24 -23 0 -26 10 -8 28 14 14 23 15 46 3z m425 -98 c-18 -2 -48 -2 -65 0 -18 2
-4 4 32 4 36 0 50 -2 33 -4z m-503 -113 c0 -5 9 -10 20 -10 25 0 38 -29 19
-41 -8 -5 -27 -8 -44 -8 -16 0 -24 3 -17 6 21 8 13 23 -13 23 -24 0 -34 18
-18 33 10 11 53 8 53 -3z m470 -80 c8 -4 15 -13 15 -20 0 -18 -54 -32 -74 -20
-10 6 -11 10 -3 10 25 0 11 20 -15 20 l-28 1 23 19 c19 16 27 17 45 8 12 -6
29 -14 37 -18z m2065 -561 c-4 -5 -17 -75 -31 -156 -29 -168 -45 -213 -42
-113 1 36 -2 75 -6 87 -8 23 -9 24 -153 49 -57 9 -103 20 -103 23 0 8 323 128
333 123 4 -2 5 -8 2 -13z m-688 -45 c-3 -3 -12 -4 -19 -1 -8 3 -5 6 6 6 11 1
17 -2 13 -5z m-838 -310 c112 -129 202 -237 200 -239 -8 -6 -663 -174 -667
-170 -4 3 231 615 245 638 2 4 7 7 11 6 4 0 99 -106 211 -235z m-1012 -600
c-3 -3 -12 -4 -19 -1 -8 3 -5 6 6 6 11 1 17 -2 13 -5z m50 -10 c-3 -3 -12 -4
-19 -1 -8 3 -5 6 6 6 11 1 17 -2 13 -5z m63 -14 c13 -8 13 -10 -2 -10 -9 0
-20 5 -23 10 -8 13 5 13 25 0z m63 -17 c-7 -2 -19 -2 -25 0 -7 3 -2 5 12 5 14
0 19 -2 13 -5z m50 -10 c-7 -2 -19 -2 -25 0 -7 3 -2 5 12 5 14 0 19 -2 13 -5z
m291 -60 c142 -31 254 -59 249 -60 -9 -3 -64 8 -353 72 -117 25 -180 43 -165
44 6 1 126 -24 269 -56z m311 -73 c7 -12 -2 -12 -30 0 -19 8 -19 9 2 9 12 1
25 -3 28 -9z m58 -17 c-7 -2 -19 -2 -25 0 -7 3 -2 5 12 5 14 0 19 -2 13 -5z
m50 -10 c-7 -2 -19 -2 -25 0 -7 3 -2 5 12 5 14 0 19 -2 13 -5z m54 -9 c-3 -3
-12 -4 -19 -1 -8 3 -5 6 6 6 11 1 17 -2 13 -5z"/>
<path d="M4943 4911 c-122 -58 -222 -110 -223 -114 0 -8 421 0 448 8 13 5 18
200 5 208 -5 2 -108 -44 -230 -102z"/>
<path d="M4245 4990 l-190 -6 -233 -101 c-128 -55 -236 -104 -240 -108 -4 -4
101 -5 233 -3 l240 3 243 105 c133 57 242 108 242 112 0 5 -24 7 -52 6 -29 -1
-138 -5 -243 -8z"/>
<path d="M3560 4566 c-439 -166 -417 -157 -405 -161 19 -7 465 -85 485 -85 10
0 169 57 352 126 183 69 359 135 391 146 32 11 55 23 52 26 -7 7 -382 69 -465
77 -52 5 -75 -3 -410 -129z"/>
<path d="M5317 3768 c-46 -116 -217 -562 -217 -568 0 -9 63 -30 91 -30 12 0
39 58 100 216 46 119 85 210 87 202 1 -8 -9 -107 -23 -221 -14 -114 -25 -211
-25 -216 0 -11 63 -31 97 -31 18 0 52 43 163 205 78 113 143 205 146 205 2 0
-6 -24 -17 -52 -51 -129 -149 -385 -149 -390 0 -5 74 -21 103 -23 14 0 236
586 224 590 -20 6 -155 35 -165 35 -5 0 -67 -83 -138 -185 -70 -101 -129 -183
-131 -181 -2 1 6 87 17 191 12 103 20 197 18 208 -2 17 -17 24 -83 39 -97 21
-92 21 -98 6z"/>
<path d="M6019 3593 c-6 -16 -55 -144 -110 -286 -54 -142 -99 -262 -99 -267 0
-5 17 -14 38 -19 75 -21 75 -21 120 97 l42 108 87 -18 c49 -10 106 -18 128
-18 84 0 171 65 200 148 32 96 8 169 -68 202 -32 14 -299 80 -323 80 -3 0 -9
-12 -15 -27z m186 -118 c105 -27 131 -86 64 -147 -33 -32 -77 -35 -164 -14
-56 14 -56 10 -19 109 29 75 28 75 119 52z"/>
<path d="M6625 3452 c-41 -20 -91 -66 -97 -90 -2 -8 15 -21 42 -32 l44 -17 27
28 c21 22 36 29 66 29 46 0 63 -14 63 -51 0 -44 -38 -80 -92 -86 -40 -5 -47
-10 -62 -39 -20 -44 -20 -44 8 -44 13 0 36 -10 51 -22 24 -19 27 -26 22 -67
-6 -57 -59 -111 -107 -111 -40 0 -80 39 -80 78 0 28 -3 30 -52 36 -62 9 -71
-1 -64 -62 11 -89 84 -144 191 -145 97 0 180 49 216 128 28 62 25 108 -12 149
l-30 35 33 14 c18 8 48 31 66 51 26 30 32 45 32 84 0 91 -55 141 -165 149 -45
3 -70 -1 -100 -15z"/>
<path d="M7135 2698 c-109 -154 -93 -148 -475 -159 -162 -5 -349 -8 -415 -7
-509 6 -1455 -1 -1491 -11 -89 -24 -268 -149 -574 -401 -219 -181 -218 -180
-291 -196 -114 -25 -647 -39 -918 -25 -523 28 -531 29 -605 106 -114 118 -430
507 -576 709 l-64 89 -29 -34 c-55 -66 -59 -81 -55 -218 3 -121 5 -129 40
-201 163 -333 731 -1134 1017 -1432 151 -158 154 -159 444 -169 513 -16 742
-20 732 -12 -5 5 -44 24 -85 43 -311 137 -561 354 -680 590 -67 133 -102 287
-86 375 6 32 9 35 23 23 14 -11 15 -8 8 29 -7 43 6 86 19 64 9 -14 456 -15
636 -1 163 13 210 28 290 93 173 140 545 410 650 470 55 31 107 45 213 57 138
16 243 21 454 23 189 2 200 1 192 -15 -5 -10 -7 -18 -4 -18 4 0 -7 -17 -23
-37 -44 -57 -54 -80 -54 -129 0 -83 61 -158 173 -215 81 -40 167 -59 279 -59
170 0 300 48 383 140 73 81 76 155 9 243 -21 29 -41 63 -45 75 -5 21 -3 23 16
17 12 -4 77 -10 144 -14 106 -5 124 -9 138 -26 26 -33 56 -95 83 -170 25 -68
26 -78 29 -369 3 -292 2 -302 -22 -392 -45 -169 -133 -312 -280 -452 -104
-100 -277 -222 -315 -222 -13 0 -55 12 -93 27 l-68 26 59 32 c246 131 451 334
538 532 14 30 23 60 22 65 -2 5 -27 -20 -56 -56 -103 -129 -299 -275 -496
-370 -891 -432 -2169 -248 -2698 387 -26 32 -48 52 -48 44 0 -8 18 -50 40 -93
206 -409 758 -697 1424 -744 83 -6 248 -17 366 -26 326 -22 446 -33 493 -44
23 -5 89 -19 147 -31 58 -11 130 -29 160 -39 265 -88 341 -104 470 -98 105 5
172 28 223 76 53 50 57 67 57 253 l0 172 -29 -41 c-21 -27 -51 -51 -97 -73
-59 -30 -79 -34 -166 -37 -104 -5 -120 3 -72 34 19 13 232 243 276 299 16 19
139 190 156 215 9 14 49 70 87 124 170 239 348 505 420 626 21 36 48 81 60
100 41 65 72 134 94 204 26 84 29 228 6 283 -17 40 -62 103 -73 103 -4 0 -43
-51 -87 -112z m-3946 -1769 c146 -5 267 -12 270 -16 10 -10 -521 6 -561 17
-20 6 -47 19 -60 30 -22 18 -20 18 32 -2 48 -18 90 -22 319 -29z"/>
<path d="M4110 1783 c-125 -14 -233 -58 -307 -126 -83 -77 -102 -151 -61 -235
41 -81 148 -152 277 -182 66 -16 239 -16 306 0 73 17 184 73 229 117 100 97
100 201 1 297 -94 92 -281 146 -445 129z"/>
<path d="M5316 1764 c-159 -38 -287 -159 -286 -269 1 -34 36 -98 76 -139 54
-53 156 -102 255 -122 257 -52 532 57 580 230 31 113 -109 256 -297 301 -75
18 -251 18 -328 -1z"/>
</g>
</svg>
